HIERARCHY
ROOT Hips
{
	OFFSET 0.00000 0.00000 0.00000
	CHANNELS 6 Xposition Yposition Zposition Zrotation Yrotation Xrotation 
	JOINT LHipJoint
	{
		OFFSET 0 0 0
		CHANNELS 3 Zrotation Yrotation Xrotation
		JOINT LeftHip
		{
			OFFSET 1.37959 -1.78713 0.86582
			CHANNELS 3 Zrotation Yrotation Xrotation
			JOINT LeftKnee
			{
				OFFSET 2.54611 -6.99539 0.00000
				CHANNELS 3 Zrotation Yrotation Xrotation
				JOINT LeftAnkle
				{
					OFFSET 2.59951 -7.14211 0.00000
					CHANNELS 3 Zrotation Yrotation Xrotation
					JOINT LeftToe
					{
						OFFSET 0.18493 -0.50810 1.96120
						CHANNELS 3 Zrotation Yrotation Xrotation
						End Site
						{
							OFFSET 0.00000 -0.00000 1.02054
						}
					}
				}
			}
		}
	}
	JOINT RHipJoint
	{
		OFFSET 0 0 0
		CHANNELS 3 Zrotation Yrotation Xrotation
		JOINT RightHip
		{
			OFFSET -1.33564 -1.78713 0.86582
			CHANNELS 3 Zrotation Yrotation Xrotation
			JOINT RightKnee
			{
				OFFSET -2.52705 -6.94302 0.00000
				CHANNELS 3 Zrotation Yrotation Xrotation
				JOINT RightAnkle
				{
					OFFSET -2.55964 -7.03257 0.00000
					CHANNELS 3 Zrotation Yrotation Xrotation
					JOINT RightToe
					{
						OFFSET -0.25804 -0.70896 2.12109
						CHANNELS 3 Zrotation Yrotation Xrotation
						End Site
						{
							OFFSET -0.00000 -0.00000 1.11821
						}
					}
				}
			}
		}
	}
	JOINT lowerback
	{
		OFFSET 0 0 0
		CHANNELS 3 Zrotation Yrotation Xrotation
		JOINT Chest
		{
			OFFSET -0.02031 2.24248 -0.18900
			CHANNELS 3 Zrotation Yrotation Xrotation
			JOINT Chest2
			{
				OFFSET 0.08342 2.24689 -0.03799
				CHANNELS 3 Zrotation Yrotation Xrotation
				JOINT lowerneck
				{
					OFFSET 0 0 0
					CHANNELS 3 Zrotation Yrotation Xrotation
					JOINT Neck
					{
						OFFSET -0.11607 1.55844 0.24628
						CHANNELS 3 Zrotation Yrotation Xrotation
						JOINT Head
						{
							OFFSET 0.06877 1.60174 -0.17013
							CHANNELS 3 Zrotation Yrotation Xrotation
							End Site
							{
								OFFSET 0.03358 1.61266 -0.08543
							}
						}
					}
				}
				JOINT LeftCollar
				{
					OFFSET 0 0 0
					CHANNELS 3 Zrotation Yrotation Xrotation
					JOINT LeftShoulder
					{
						OFFSET 3.47537 0.55866 -0.72348
CHANNELS 3 Zrotation Xrotation Yrotation
						JOINT LeftElbow
						{
OFFSET 0 -5.381540 0.000000
CHANNELS 3 Zrotation Xrotation Yrotation
							JOINT LeftWrist
							{
OFFSET 0 -3.333120 0.000000
CHANNELS 3 Zrotation Xrotation Yrotation
								JOINT lhand
								{
									OFFSET 0 0 0
CHANNELS 3 Zrotation Xrotation Yrotation
									JOINT LFingers
									{
OFFSET 0 -0.710790 0.000000
CHANNELS 3 Zrotation Xrotation Yrotation
										End Site
										{
OFFSET 0 -0.573060 0.000000
										}
									}
								}
								JOINT LThumb
								{
OFFSET 0 0.000000 0.000000
CHANNELS 3 Zrotation Xrotation Yrotation
									End Site
									{
OFFSET 0 -0.581810 0.581810
									}
								}
							}
						}
					}
				}
				JOINT RightCollar
				{
					OFFSET 0 0 0
					CHANNELS 3 Zrotation Yrotation Xrotation
					JOINT RightShoulder
					{
						OFFSET -3.27844 0.90739 -0.35708
CHANNELS 3 Zrotation Xrotation Yrotation
						JOINT RightElbow
						{
OFFSET 0 -5.169540 0.000000
CHANNELS 3 Zrotation Xrotation Yrotation
							JOINT RightWrist
							{
OFFSET 0 -3.382870 0.000000
CHANNELS 3 Zrotation Xrotation Yrotation
								JOINT rhand
								{
									OFFSET 0 0 0
CHANNELS 3 Zrotation Xrotation Yrotation
									JOINT RFingers
									{
OFFSET 0 -0.817970 0.000000
CHANNELS 3 Zrotation Xrotation Yrotation
										End Site
										{
OFFSET 0 -0.659470 0.000000
										}
									}
								}
								JOINT RThumb
								{
OFFSET 0 0.000000 0.000000
CHANNELS 3 Zrotation Xrotation Yrotation
									End Site
									{
OFFSET 0 -0.669530 0.669530
									}
								}
							}
						}
					}
				}
			}
		}
	}
}
MOTION
Frames: 10
Frame Time: 0.008333333333333333
7.482069 17.553641 -15.608059 -0.887951 -2.744513 -2.323687 0.000000 0.000000 0.000000 -15.419603 0.061838 0.926366 0.986091 6.320667 17.717592 0.703087 0.252084 -15.939305 0.186119 -2.768345 -7.635007 0.000000 0.000000 0.000000 19.338202 -3.104868 -0.918260 -0.943265 -6.185780 17.324347 -0.415749 -6.864970 -16.599874 0.000000 0.010584 -0.029090 -1.518898 -0.195835 2.291465 3.177257 -0.225535 -1.903379 4.148493 -0.038817 -3.228754 -9.984296 -3.325840 -14.804625 7.096125 -3.682657 17.496509 3.607900 -1.722075 8.183468 0.000000 0.000000 0.000000 32.871877 -44.014288 -28.295304 93.588888 -59.951010 63.107486 13.513491 26.833344 -37.821617 0.000000 0.000000 0.000000 -7.125000 0.000000 0.000000 -28.103919 66.541831 15.104492 0.000000 0.000000 0.000000 -41.486742 -43.552072 29.809205 -105.539993 -59.067545 -73.415888 -10.130506 3.143742 -39.525581 0.000000 0.000000 0.000000 7.125000 0.000000 0.000000 12.857626 -9.106681 15.085410
7.485289 17.548660 -15.577079 -0.998082 -3.067807 -2.520082 0.000000 0.000000 0.000000 -15.291611 0.308330 1.181926 0.993399 6.343287 17.783681 0.712933 0.341933 -16.082854 0.233159 -3.104275 -8.569443 0.000000 0.000000 0.000000 19.479637 -2.931746 -0.537504 -0.939574 -6.173858 17.289693 -0.414666 -6.877233 -16.597061 -0.000406 -0.005692 0.015723 -1.422794 -0.145517 2.086769 3.311670 -0.152696 -1.834698 4.228091 -0.006787 -3.048237 -9.955132 -3.341409 -14.636696 6.880442 -3.679322 17.378965 3.528886 -1.741580 8.109938 0.000000 0.000000 0.000000 32.693295 -44.121229 -28.760175 92.473629 -59.976835 62.142042 16.321753 27.289366 -34.835505 0.000000 0.000000 0.000000 -7.125000 0.000000 0.000000 -21.456163 64.701556 10.458562 0.000000 0.000000 0.000000 -41.812707 -44.226794 30.127276 -104.608075 -59.177759 -72.615990 -11.343422 1.564835 -39.358993 0.000000 0.000000 0.000000 7.125000 0.000000 0.000000 12.219581 -9.137903 14.308679
7.495965 17.533766 -15.561199 -0.477057 -3.326007 -2.832856 0.000000 0.000000 0.000000 -15.943007 0.529821 1.636939 0.975229 6.286681 17.618647 0.709784 0.764561 -16.211996 0.341866 -3.754187 -10.386466 0.000000 0.000000 0.000000 18.903553 -2.451613 -0.257640 -0.987909 -6.326174 17.733826 -0.434937 -6.962814 -16.921505 -0.002366 0.304155 -0.835711 -1.864376 -0.151174 2.136409 3.226367 -0.180843 -1.683413 4.390202 -0.016695 -2.917115 -10.046975 -3.264437 -15.120417 6.902117 -3.521187 17.760317 3.573868 -1.665811 8.311740 0.000000 0.000000 0.000000 32.672418 -44.260544 -28.945430 91.379247 -59.992683 61.194448 17.686949 28.074305 -34.125580 0.000000 0.000000 0.000000 -7.125000 0.000000 0.000000 -19.197687 64.420918 9.189202 0.000000 0.000000 0.000000 -42.451918 -45.666899 30.374216 -102.162245 -59.433461 -70.512721 -12.705957 0.046404 -39.093399 0.000000 0.000000 0.000000 7.125000 0.000000 0.000000 11.488833 -9.107296 13.413681
7.504783 17.515490 -15.526163 -0.820413 -3.122402 -3.156183 0.000000 0.000000 0.000000 -15.493923 0.891417 2.040964 0.983026 6.311093 17.689713 0.767096 -0.042557 -16.540970 0.364549 -3.877300 -10.731799 0.000000 0.000000 0.000000 19.137406 -3.112993 0.001784 -1.005396 -6.380308 17.891997 -0.469309 -6.620501 -17.039000 -0.000447 0.132774 -0.364694 -1.352072 -0.091942 2.019399 3.173634 -0.084651 -1.733948 4.039419 0.020783 -2.911465 -10.131713 -3.447289 -14.805064 7.020612 -3.837693 18.352010 3.600489 -1.821376 8.487421 0.000000 0.000000 0.000000 31.996931 -44.484215 -30.378751 90.234669 -59.999469 60.203213 18.701150 28.864639 -33.389320 0.000000 0.000000 0.000000 -7.125000 0.000000 0.000000 -17.356891 64.002994 8.114403 0.000000 0.000000 0.000000 -42.319320 -44.341750 30.449278 -102.002651 -59.448259 -70.375279 -13.800534 0.275935 -39.148400 0.000000 0.000000 0.000000 7.125000 0.000000 0.000000 10.933521 -9.352332 12.780945
7.516943 17.516130 -15.502643 -0.983258 -3.189045 -3.134214 0.000000 0.000000 0.000000 -15.323376 1.032949 1.904592 1.021261 6.428813 18.033909 0.801608 -0.350616 -16.807095 0.329851 -3.690891 -10.208704 0.000000 0.000000 0.000000 19.256022 -3.178906 0.188110 -0.978470 -6.296769 17.647993 -0.467300 -6.625435 -17.018838 -0.004146 0.414512 -1.138891 -1.030893 -0.157011 1.762897 3.205189 -0.162329 -1.701441 3.891371 -0.027291 -2.727306 -10.218380 -3.431538 -14.801498 7.022037 -3.805026 18.563595 3.622679 -1.814255 8.557152 0.000000 0.000000 0.000000 32.223099 -44.555482 -30.470296 89.158323 -59.997251 59.271118 18.586519 30.466544 -33.037220 0.000000 0.000000 0.000000 -7.125000 0.000000 0.000000 -17.172687 63.638902 7.877992 0.000000 0.000000 0.000000 -42.468110 -44.617912 30.614841 -100.632110 -59.568499 -69.194314 -14.921155 -0.028625 -39.263864 0.000000 0.000000 0.000000 7.125000 0.000000 0.000000 10.374048 -9.669650 12.153154
7.519190 17.509984 -15.495112 -1.444488 -3.472590 -3.095868 0.000000 0.000000 0.000000 -14.777391 1.206914 1.581582 1.085069 6.620176 18.595043 0.809846 -0.482328 -16.851515 0.307893 -3.566595 -9.860555 0.000000 0.000000 0.000000 19.836472 -2.796967 0.551396 -0.931772 -6.148948 17.217338 -0.430330 -6.950813 -16.854905 -0.000725 0.168144 -0.461961 -0.522129 -0.116522 1.714142 3.350894 -0.090060 -1.707285 3.751590 0.000192 -2.711434 -10.391646 -3.394278 -15.105318 7.177943 -3.723917 18.828811 3.718537 -1.769812 8.700755 0.000000 0.000000 0.000000 32.601253 -44.780249 -30.476031 87.775889 -59.981048 58.074014 18.042888 31.803543 -33.265368 0.000000 0.000000 0.000000 -7.125000 0.000000 0.000000 -17.991789 63.709937 8.295657 0.000000 0.000000 0.000000 -43.119642 -45.076952 30.425419 -99.140397 -59.681580 -67.907372 -16.150100 -1.472836 -39.056935 0.000000 0.000000 0.000000 7.125000 0.000000 0.000000 9.711595 -9.701409 11.359688
7.515973 17.524868 -15.494873 -1.933066 -3.702086 -2.793686 0.000000 0.000000 0.000000 -14.192768 0.996756 0.986975 1.152752 6.816988 19.174399 0.807530 -0.356227 -16.867765 0.276706 -3.381170 -9.341993 0.000000 0.000000 0.000000 20.523889 -2.118859 0.714836 -0.882453 -5.988391 16.750771 -0.389594 -7.472753 -16.831015 -0.000094 0.013490 -0.037180 -0.022637 0.027548 1.466745 3.444476 0.118710 -1.838509 3.557950 0.096755 -2.720768 -10.120202 -3.474321 -14.688218 6.786779 -3.852783 18.658000 3.521480 -1.856680 8.566961 0.000000 0.000000 0.000000 33.066734 -45.332265 -30.653535 86.508492 -59.953813 56.976763 17.259367 31.272604 -33.506571 0.000000 0.000000 0.000000 -7.125000 0.000000 0.000000 -19.096033 63.727730 8.830795 0.000000 0.000000 0.000000 -43.635434 -45.094420 29.565117 -97.561916 -59.782323 -66.543997 -16.555156 -0.990707 -39.232843 0.000000 0.000000 0.000000 7.125000 0.000000 0.000000 9.530122 -9.953424 11.175942
7.517872 17.515429 -15.496229 -1.860050 -3.439713 -2.785197 0.000000 0.000000 0.000000 -14.233051 1.146009 0.830323 1.161124 6.840873 19.244835 0.792505 -0.701262 -16.599749 0.299756 -3.518473 -9.725824 0.000000 0.000000 0.000000 20.437277 -2.222536 0.596457 -0.901093 -6.049601 16.928465 -0.397390 -7.548432 -16.997234 -0.000172 -0.050482 0.138582 -0.154548 -0.231317 1.543100 3.592053 -0.231407 -1.663499 3.798119 -0.077212 -2.560774 -10.222059 -3.277430 -15.886886 6.712704 -3.417020 18.815698 3.563390 -1.646809 8.798436 0.000000 0.000000 0.000000 34.103604 -45.768954 -29.070006 86.147332 -59.943854 56.664116 16.271290 31.091708 -34.195933 0.000000 0.000000 0.000000 -7.125000 0.000000 0.000000 -20.865559 64.101342 9.867695 0.000000 0.000000 0.000000 -44.568161 -46.217175 28.638680 -96.143607 -59.856906 -65.317938 -16.565521 -0.168816 -39.747239 0.000000 0.000000 0.000000 7.125000 0.000000 0.000000 9.605326 -10.459603 11.335040
7.521167 17.515256 -15.495464 -2.009381 -3.461140 -2.786004 0.000000 0.000000 0.000000 -14.024140 1.368640 0.747771 1.169326 6.864056 19.313186 0.811277 -0.962618 -16.721183 0.371335 -3.913999 -10.834906 0.000000 0.000000 0.000000 20.572294 -2.370898 0.506237 -0.912528 -6.087013 17.037154 -0.401825 -7.380685 -16.895827 -0.000244 -0.063457 0.174325 -0.151505 -0.337189 1.852966 3.834808 -0.357338 -1.776398 4.058737 -0.133931 -2.842941 -10.388199 -3.263643 -16.033106 6.428685 -3.279102 18.881720 3.509982 -1.622134 8.834489 0.000000 0.000000 0.000000 34.495811 -45.838835 -28.294476 85.642707 -59.928151 56.227388 14.684614 31.881718 -35.513085 0.000000 0.000000 0.000000 -7.125000 0.000000 0.000000 -24.005821 64.861359 11.855540 0.000000 0.000000 0.000000 -45.862438 -46.775281 27.758554 -97.658903 -59.777208 -66.627849 -15.395559 1.230207 -38.600029 0.000000 0.000000 0.000000 7.125000 0.000000 0.000000 10.034273 -9.109045 11.662475
7.525371 17.516814 -15.491001 -2.011210 -3.493976 -2.823586 0.000000 0.000000 0.000000 -14.084663 1.183451 0.773119 1.192286 6.928897 19.504800 0.822203 -0.901607 -16.853475 0.354821 -3.827124 -10.590796 0.000000 0.000000 0.000000 20.535307 -2.558989 0.484137 -0.906771 -6.068328 16.982753 -0.378774 -7.398703 -16.626416 -0.008837 0.600944 -1.651375 -0.059409 -0.322240 2.360128 3.803899 -0.315282 -2.067883 3.982418 -0.106235 -3.434623 -10.344686 -3.173576 -15.935755 6.431484 -3.182341 19.049770 3.519250 -1.577230 8.864144 0.000000 0.000000 0.000000 34.686364 -45.960843 -27.963093 85.515992 -59.923859 56.117692 11.409949 32.156763 -36.916882 0.000000 0.000000 0.000000 -7.125000 0.000000 0.000000 -29.219768 65.173371 14.826750 0.000000 0.000000 0.000000 -46.099434 -47.191072 26.867356 -97.158284 -59.805463 -66.195185 -14.663824 2.361315 -38.444684 0.000000 0.000000 0.000000 7.125000 0.000000 0.000000 10.392047 -8.820944 12.047608
